<?xml version="1.0" encoding="utf-8"?>
<!-- Generator: Adobe Illustrator 19.0.0, SVG Export Plug-In . SVG Version: 6.00 Build 0)  -->
<svg version="1.1" id="Camada_1" xmlns="http://www.w3.org/2000/svg" xmlns:xlink="http://www.w3.org/1999/xlink" x="0px" y="0px"
	 viewBox="-245 362 120 69" style="enable-background:new -245 362 120 69;" xml:space="preserve">
<!-- <style type="text/css">
	.st0{fill:#3EC3D5;}
	.st1{fill:#FFFFFF;}
</style> -->
<path class="st0" d="M-176.2,374c0.1,0.2,0.2,0.4,0.3,0.5c5,1.3,8.6,5.8,8.6,11c0,6.3-5.3,11.4-11.7,11.4c-3.4,0-6.4-1.4-8.6-3.6
	h-8.1c-1.8,0-3.2-1.4-3.2-3.1c0-1,0.5-1.9,1.2-2.4c-0.7-0.6-1.2-1.4-1.2-2.4c0-1,0.5-1.9,1.2-2.4c-0.7-0.6-1.2-1.4-1.2-2.4
	s0.5-1.9,1.2-2.4c-0.7-0.6-1.2-1.4-1.2-2.4c0-1.7,1.4-3.1,3.2-3.1h1.8c-0.4-0.5-0.6-1.1-0.6-1.7s0.2-1.2,0.6-1.7h-5.5
	c-1.8,0-3.2-1.4-3.2-3.1c0-1.7,1.4-3.1,3.2-3.1h16.9c1.8,0,3.2,1.4,3.2,3.1c0,0.6-0.2,1.2-0.6,1.7h5.5c1.8,0,3.2,1.4,3.2,3.1
	c0,1.7-1.4,3.1-3.2,3.1H-176.2z M-172.6,370.9c0-1-0.8-1.7-1.8-1.7h-16.9c-1,0-1.8,0.8-1.8,1.7s0.8,1.7,1.8,1.7h12.5h4.4
	C-173.4,372.7-172.6,371.9-172.6,370.9z M-201.3,366.1c0,1,0.8,1.7,1.8,1.7h16.9c1,0,1.8-0.8,1.8-1.7s-0.8-1.7-1.8-1.7h-16.9
	C-200.5,364.3-201.3,365.1-201.3,366.1z M-178.8,374h-16.9c-1,0-1.8,0.8-1.8,1.7c0,1,0.8,1.7,1.8,1.7h8.4c2.1-2.1,5.1-3.4,8.3-3.4
	c0.3,0,0.7,0,1,0C-178.3,374.1-178.6,374-178.8,374z M-188.6,378.9h-7.2c-1,0-1.8,0.8-1.8,1.7c0,1,0.8,1.7,1.8,1.7h5.5
	C-189.9,381.1-189.3,379.9-188.6,378.9z M-190.6,383.7h-5.1c-1,0-1.8,0.8-1.8,1.7c0,1,0.8,1.7,1.8,1.7h5.1c-0.1-0.5-0.1-1.1-0.1-1.6
	C-190.8,384.9-190.7,384.3-190.6,383.7z M-197.6,390.3c0,1,0.8,1.7,1.8,1.7h7c-0.7-1.1-1.3-2.2-1.7-3.5h-5.4
	C-196.8,388.5-197.6,389.3-197.6,390.3z M-189.4,385.6c0,5.6,4.7,10.1,10.4,10.1c5.7,0,10.4-4.5,10.4-10.1c0-5.6-4.7-10.1-10.4-10.1
	C-184.8,375.5-189.4,380-189.4,385.6z M-180.8,383.3c0,0.8,0.8,1.5,1.8,1.5c1.9,0,3.4,1.4,3.4,3c0,1.4-1.1,2.6-2.6,2.9v0.3
	c0,0.4-0.4,0.8-0.8,0.8c-0.4,0-0.8-0.3-0.8-0.8v-0.3c-1.5-0.3-2.6-1.5-2.6-2.9c0-0.4,0.4-0.8,0.8-0.8s0.8,0.3,0.8,0.8
	c0,0.8,0.8,1.5,1.8,1.5c1,0,1.8-0.7,1.8-1.5s-0.8-1.5-1.8-1.5c-1.9,0-3.4-1.4-3.4-3c0-1.4,1.1-2.6,2.6-2.9v-0.4
	c0-0.4,0.4-0.8,0.8-0.8c0.4,0,0.8,0.3,0.8,0.8v0.4c1.5,0.3,2.6,1.5,2.6,2.9c0,0.4-0.4,0.8-0.8,0.8c-0.4,0-0.8-0.3-0.8-0.8
	c0-0.8-0.8-1.5-1.8-1.5C-180,381.8-180.8,382.5-180.8,383.3z" fill="#3EC3D5"/>
<path class="st0" d="M-175.9,374.6l-0.2,0.1l0,0.1l0.1,0L-175.9,374.6z M-176.2,374v-0.3h-0.5l0.3,0.4L-176.2,374z M-187.6,393.4
	l0.2-0.2l-0.1-0.1h-0.1V393.4z M-197.8,387.9l0.2,0.2l0.3-0.2l-0.3-0.2L-197.8,387.9z M-197.8,383l0.2,0.2l0.3-0.2l-0.3-0.2
	L-197.8,383z M-197.8,378.2l0.2,0.2l0.3-0.2l-0.3-0.2L-197.8,378.2z M-194,372.7v0.3h0.5l-0.3-0.4L-194,372.7z M-194,369.2l0.2,0.1
	l0.3-0.4h-0.5V369.2z M-180,367.8l-0.2-0.1l-0.3,0.4h0.5V367.8z M-187.4,377.5v0.3h0.1l0.1-0.1L-187.4,377.5z M-178.1,374.2l0,0.2
	l0.1-0.5L-178.1,374.2z M-188.6,378.9l0.2,0.2l0.3-0.4h-0.5V378.9z M-190.3,382.4v0.3h0.2l0.1-0.2L-190.3,382.4z M-190.6,383.7
	l0.2,0l0.1-0.3h-0.3V383.7z M-190.7,387.2v0.3h0.3l0-0.3L-190.7,387.2z M-188.7,392v0.3h0.5l-0.3-0.4L-188.7,392z M-190.4,388.5
	l0.2-0.1l-0.1-0.2h-0.2V388.5z M-178.3,390.7l-0.1-0.2l-0.2,0v0.2H-178.3z M-179.9,390.7h0.3v-0.2l-0.2,0L-179.9,390.7z
	 M-179.9,380.3l0.1,0.2l0.2,0v-0.2H-179.9z M-178.3,380.3h-0.3v0.2l0.2,0L-178.3,380.3z M-175.7,374.5c-0.1-0.2-0.2-0.4-0.3-0.6
	l-0.4,0.3c0.1,0.2,0.2,0.3,0.3,0.5L-175.7,374.5z M-167.1,385.6c0-5.4-3.7-9.9-8.8-11.2l-0.1,0.5c4.9,1.3,8.4,5.6,8.4,10.8H-167.1z
	 M-179.1,397.3c6.6,0,12-5.2,12-11.7h-0.5c0,6.2-5.2,11.2-11.5,11.2V397.3z M-187.8,393.5c2.2,2.3,5.3,3.7,8.8,3.7v-0.5
	c-3.3,0-6.3-1.4-8.4-3.6L-187.8,393.5z M-195.8,393.6h8.1v-0.5h-8.1V393.6z M-199.2,390.3c0,1.8,1.5,3.3,3.4,3.3v-0.5
	c-1.6,0-2.9-1.3-2.9-2.8H-199.2z M-197.9,387.7c-0.8,0.6-1.3,1.6-1.3,2.6h0.5c0-0.9,0.4-1.7,1.1-2.2L-197.9,387.7z M-199.2,385.4
	c0,1.1,0.5,2,1.3,2.6l0.3-0.4c-0.7-0.5-1.1-1.3-1.1-2.2H-199.2z M-197.9,382.8c-0.8,0.6-1.3,1.6-1.3,2.6h0.5c0-0.9,0.4-1.7,1.1-2.2
	L-197.9,382.8z M-199.2,380.6c0,1.1,0.5,2,1.3,2.6l0.3-0.4c-0.7-0.5-1.1-1.3-1.1-2.2H-199.2z M-197.9,378c-0.8,0.6-1.3,1.6-1.3,2.6
	h0.5c0-0.9,0.4-1.7,1.1-2.2L-197.9,378z M-199.2,375.8c0,1.1,0.5,2,1.3,2.6l0.3-0.4c-0.7-0.5-1.1-1.3-1.1-2.2H-199.2z M-195.8,372.4
	c-1.9,0-3.4,1.5-3.4,3.3h0.5c0-1.6,1.3-2.8,2.9-2.8V372.4z M-194,372.4h-1.8v0.5h1.8V372.4z M-194.8,370.9c0,0.7,0.2,1.4,0.6,1.9
	l0.4-0.3c-0.3-0.5-0.5-1-0.5-1.6H-194.8z M-194.2,369c-0.4,0.5-0.6,1.2-0.6,1.9h0.5c0-0.6,0.2-1.1,0.5-1.6L-194.2,369z
	 M-199.5,369.4h5.5v-0.5h-5.5V369.4z M-202.9,366.1c0,1.8,1.5,3.3,3.4,3.3v-0.5c-1.6,0-2.9-1.3-2.9-2.8H-202.9z M-199.5,362.8
	c-1.9,0-3.4,1.5-3.4,3.3h0.5c0-1.6,1.3-2.8,2.9-2.8V362.8z M-182.6,362.8h-16.9v0.5h16.9V362.8z M-179.2,366.1
	c0-1.8-1.5-3.3-3.4-3.3v0.5c1.6,0,2.9,1.3,2.9,2.8H-179.2z M-179.8,368c0.4-0.5,0.6-1.2,0.6-1.9h-0.5c0,0.6-0.2,1.1-0.5,1.6
	L-179.8,368z M-174.4,367.6h-5.5v0.5h5.5V367.6z M-171,370.9c0-1.8-1.5-3.3-3.4-3.3v0.5c1.6,0,2.9,1.3,2.9,2.8H-171z M-174.4,374.3
	c1.9,0,3.4-1.5,3.4-3.3h-0.5c0,1.6-1.3,2.8-2.9,2.8V374.3z M-176.2,374.3h1.8v-0.5h-1.8V374.3z M-174.4,369.4c0.9,0,1.5,0.7,1.5,1.5
	h0.5c0-1.1-0.9-2-2-2V369.4z M-191.4,369.4h16.9v-0.5h-16.9V369.4z M-192.9,370.9c0-0.8,0.7-1.5,1.5-1.5v-0.5c-1.1,0-2,0.9-2,2
	H-192.9z M-191.4,372.4c-0.9,0-1.5-0.7-1.5-1.5h-0.5c0,1.1,0.9,2,2,2V372.4z M-178.8,372.4h-12.5v0.5h12.5V372.4z M-174.4,372.4
	h-4.4v0.5h4.4V372.4z M-172.9,370.9c0,0.8-0.7,1.5-1.5,1.5v0.5c1.1,0,2-0.9,2-2H-172.9z M-199.5,367.6c-0.9,0-1.5-0.7-1.5-1.5h-0.5
	c0,1.1,0.9,2,2,2V367.6z M-182.6,367.6h-16.9v0.5h16.9V367.6z M-181,366.1c0,0.8-0.7,1.5-1.5,1.5v0.5c1.1,0,2-0.9,2-2H-181z
	 M-182.6,364.6c0.9,0,1.5,0.7,1.5,1.5h0.5c0-1.1-0.9-2-2-2V364.6z M-199.5,364.6h16.9v-0.5h-16.9V364.6z M-201.1,366.1
	c0-0.8,0.7-1.5,1.5-1.5v-0.5c-1.1,0-2,0.9-2,2H-201.1z M-195.8,374.3h16.9v-0.5h-16.9V374.3z M-197.3,375.8c0-0.8,0.7-1.5,1.5-1.5
	v-0.5c-1.1,0-2,0.9-2,2H-197.3z M-195.8,377.3c-0.9,0-1.5-0.7-1.5-1.5h-0.5c0,1.1,0.9,2,2,2V377.3z M-187.4,377.3h-8.4v0.5h8.4
	V377.3z M-179.1,373.9c-3.3,0-6.3,1.3-8.5,3.4l0.3,0.4c2.1-2,5-3.3,8.1-3.3V373.9z M-178,373.9c-0.3,0-0.7,0-1,0v0.5
	c0.3,0,0.7,0,1,0L-178,373.9z M-178.8,374.3c0.2,0,0.5,0.1,0.7,0.2l0.2-0.5c-0.3-0.1-0.6-0.2-0.9-0.2V374.3z M-195.8,379.1h7.2v-0.5
	h-7.2V379.1z M-197.3,380.6c0-0.8,0.7-1.5,1.5-1.5v-0.5c-1.1,0-2,0.9-2,2H-197.3z M-195.8,382.1c-0.9,0-1.5-0.7-1.5-1.5h-0.5
	c0,1.1,0.9,2,2,2V382.1z M-190.3,382.1h-5.5v0.5h5.5V382.1z M-188.8,378.7c-0.8,1.1-1.4,2.3-1.8,3.6l0.5,0.1c0.4-1.2,1-2.4,1.7-3.4
	L-188.8,378.7z M-195.8,383.9h5.1v-0.5h-5.1V383.9z M-197.3,385.4c0-0.8,0.7-1.5,1.5-1.5v-0.5c-1.1,0-2,0.9-2,2H-197.3z
	 M-195.8,386.9c-0.9,0-1.5-0.7-1.5-1.5h-0.5c0,1.1,0.9,2,2,2V386.9z M-190.7,386.9h-5.1v0.5h5.1V386.9z M-191.1,385.6
	c0,0.6,0,1.1,0.1,1.6l0.5-0.1c-0.1-0.5-0.1-1-0.1-1.6H-191.1z M-190.9,383.7c-0.1,0.6-0.2,1.3-0.2,1.9h0.5c0-0.6,0.1-1.2,0.2-1.8
	L-190.9,383.7z M-195.8,391.8c-0.9,0-1.5-0.7-1.5-1.5h-0.5c0,1.1,0.9,2,2,2V391.8z M-188.7,391.8h-7v0.5h7V391.8z M-190.6,388.6
	c0.4,1.3,0.9,2.5,1.7,3.6l0.4-0.3c-0.7-1-1.3-2.2-1.6-3.4L-190.6,388.6z M-195.8,388.8h5.4v-0.5h-5.4V388.8z M-197.3,390.3
	c0-0.8,0.7-1.5,1.5-1.5v-0.5c-1.1,0-2,0.9-2,2H-197.3z M-179.1,395.4c-5.6,0-10.1-4.4-10.1-9.8h-0.5c0,5.7,4.8,10.3,10.6,10.3V395.4
	z M-168.9,385.6c0,5.4-4.5,9.8-10.1,9.8v0.5c5.8,0,10.6-4.6,10.6-10.3H-168.9z M-179.1,375.7c5.6,0,10.1,4.4,10.1,9.8h0.5
	c0-5.7-4.8-10.3-10.6-10.3V375.7z M-189.2,385.6c0-5.4,4.5-9.8,10.1-9.8v-0.5c-5.8,0-10.6,4.6-10.6,10.3H-189.2z M-179.1,384.5
	c-0.9,0-1.5-0.6-1.5-1.2h-0.5c0,1,0.9,1.7,2,1.7V384.5z M-175.4,387.8c0-1.8-1.6-3.3-3.6-3.3v0.5c1.7,0,3.1,1.3,3.1,2.8H-175.4z
	 M-178.2,391c1.6-0.3,2.8-1.6,2.8-3.2h-0.5c0,1.3-1,2.4-2.4,2.7L-178.2,391z M-178,391.1v-0.3h-0.5v0.3H-178z M-179.1,392.1
	c0.6,0,1-0.5,1-1h-0.5c0,0.3-0.2,0.5-0.5,0.5V392.1z M-180.1,391.1c0,0.6,0.5,1,1,1v-0.5c-0.3,0-0.5-0.2-0.5-0.5H-180.1z
	 M-180.1,390.7v0.3h0.5v-0.3H-180.1z M-182.7,387.8c0,1.6,1.2,2.8,2.8,3.2l0.1-0.5c-1.4-0.3-2.4-1.4-2.4-2.7H-182.7z M-181.6,386.8
	c-0.6,0-1,0.5-1,1h0.5c0-0.3,0.2-0.5,0.5-0.5V386.8z M-180.6,387.8c0-0.6-0.5-1-1-1v0.5c0.3,0,0.5,0.2,0.5,0.5H-180.6z M-179.1,389
	c-0.9,0-1.5-0.6-1.5-1.2h-0.5c0,1,0.9,1.7,2,1.7V389z M-177.5,387.8c0,0.6-0.6,1.2-1.5,1.2v0.5c1.1,0,2-0.7,2-1.7H-177.5z
	 M-179.1,386.6c0.9,0,1.5,0.6,1.5,1.2h0.5c0-1-0.9-1.7-2-1.7V386.6z M-182.7,383.3c0,1.8,1.6,3.3,3.6,3.3v-0.5
	c-1.7,0-3.1-1.3-3.1-2.8H-182.7z M-179.9,380.1c-1.6,0.3-2.8,1.6-2.8,3.2h0.5c0-1.3,1-2.4,2.4-2.7L-179.9,380.1z M-180.1,379.9v0.4
	h0.5v-0.4H-180.1z M-179.1,378.9c-0.6,0-1,0.5-1,1h0.5c0-0.3,0.2-0.5,0.5-0.5V378.9z M-178,379.9c0-0.6-0.5-1-1-1v0.5
	c0.3,0,0.5,0.2,0.5,0.5H-178z M-178,380.3v-0.4h-0.5v0.4H-178z M-175.4,383.3c0-1.6-1.2-2.8-2.8-3.2l-0.1,0.5
	c1.4,0.3,2.4,1.4,2.4,2.7H-175.4z M-176.5,384.3c0.6,0,1-0.5,1-1h-0.5c0,0.3-0.2,0.5-0.5,0.5V384.3z M-177.5,383.3c0,0.6,0.5,1,1,1
	v-0.5c-0.3,0-0.5-0.2-0.5-0.5H-177.5z M-179.1,382c0.9,0,1.5,0.6,1.5,1.2h0.5c0-1-0.9-1.7-2-1.7V382z M-180.6,383.3
	c0-0.6,0.6-1.2,1.5-1.2v-0.5c-1.1,0-2,0.7-2,1.7H-180.6z" fill="#3EC3D5"/>
<path class="st1" d="M-245,419.7c0,3.5,2.4,5.9,5.6,5.9c2.1,0,3.7-1.1,4.4-2.3v2.4c0,2.4-1.6,3.7-3.7,3.7c-1.9,0-3.3-0.9-3.8-2.3
	h-1.9c0.4,2.4,2.6,3.9,5.7,3.9c3.5,0,5.6-2.2,5.6-5.4V414h-2v2.1c-0.7-1.2-2.2-2.3-4.4-2.3C-242.6,413.8-245,416.1-245,419.7z
	 M-235,419.7c0,2.7-1.8,4.2-4,4.2s-4-1.6-4-4.3s1.8-4.2,4-4.2S-235,417-235,419.7z" fill="#fff"/>
<path class="st1" d="M-218.6,419.7c0-3.6-2.6-5.9-5.9-5.9c-3.3,0-5.9,2.3-5.9,5.9c0,3.6,2.5,5.9,5.9,5.9
	C-221.3,425.6-218.6,423.3-218.6,419.7z M-228.5,419.7c0-2.9,1.9-4.2,3.9-4.2c2,0,4,1.3,4,4.2c0,2.9-2,4.2-4,4.2
	C-226.7,423.9-228.5,422.6-228.5,419.7z" fill="#fff"/>
<path class="st1" d="M-214.9,425.4h2.5v-9.5h2.2V414h-2.2v-0.8c0-1.3,0.5-1.8,2-1.8v-2c-3.1,0-4.5,1.1-4.5,3.8v0.8h-1.4v1.9h1.4
	V425.4z" fill="#fff"/>
<path class="st1" d="M-208.1,425.4h2.4V414h-2.4V425.4z M-206.8,412.4c0.9,0,1.5-0.7,1.5-1.5c0-0.9-0.7-1.5-1.5-1.5
	c-0.9,0-1.6,0.7-1.6,1.5C-208.4,411.8-207.7,412.4-206.8,412.4z" fill="#fff"/>
<path class="st1" d="M-194,425.4h2.4v-6.7c0-3.2-2.1-4.9-4.9-4.9c-1.4,0-2.7,0.6-3.5,1.5V414h-2.4v11.4h2.4V419c0-2.1,1.2-3.2,3-3.2
	c1.8,0,3,1.1,3,3.2V425.4z" fill="#fff"/>
<path class="st1" d="M-189.3,419.6c0,3.5,2.5,6,5.5,6c2,0,3.4-0.9,4.1-1.9v1.7h2.5V414h-2.5v1.7c-0.7-0.9-2.1-1.8-4.1-1.8
	C-186.8,413.8-189.3,416.1-189.3,419.6z M-179.6,419.7c0,2.5-1.7,3.9-3.6,3.9c-1.8,0-3.6-1.4-3.6-3.9c0-2.5,1.8-3.8,3.6-3.8
	C-181.3,415.8-179.6,417.2-179.6,419.7z" fill="#fff"/>
<path class="st1" d="M-165.5,425.4h2.4v-6.7c0-3.2-2.1-4.9-4.9-4.9c-1.4,0-2.7,0.6-3.5,1.5V414h-2.4v11.4h2.4V419
	c0-2.1,1.2-3.2,3-3.2c1.8,0,3,1.1,3,3.2V425.4z" fill="#fff" />
<path class="st1" d="M-160.8,419.7c0,3.6,2.4,5.9,5.8,5.9c2.9,0,4.8-1.6,5.5-3.8h-2.6c-0.5,1.2-1.4,1.8-2.8,1.8
	c-2,0-3.3-1.4-3.3-3.9c0-2.5,1.3-3.9,3.3-3.9c1.5,0,2.4,0.7,2.8,1.8h2.6c-0.7-2.4-2.6-3.8-5.5-3.8
	C-158.4,413.8-160.8,416.1-160.8,419.7z" fill="#fff" />
<path class="st1" d="M-142.1,415.8c1.8,0,3.3,1.1,3.3,2.9h-6.6C-145.1,416.8-143.8,415.8-142.1,415.8z M-136.6,422h-2.6
	c-0.5,0.9-1.3,1.6-2.8,1.6c-1.8,0-3.2-1.1-3.4-3h9c0.1-0.4,0.1-0.8,0.1-1.2c0-3.4-2.4-5.6-5.8-5.6c-3.5,0-5.9,2.3-5.9,5.9
	c0,3.6,2.5,5.9,5.9,5.9C-139.1,425.6-137.2,424-136.6,422z" fill="#fff" />
<path class="st1" d="M-125,422.2c-0.1-4.1-6.8-2.8-6.8-5.1c0-0.8,0.7-1.3,2-1.3c1.3,0,2.1,0.7,2.2,1.7h2.4c-0.1-2.3-1.9-3.7-4.6-3.7
	c-2.8,0-4.6,1.5-4.6,3.3c0,4.2,6.9,2.9,6.9,5.1c0,0.8-0.8,1.4-2.2,1.4c-1.4,0-2.3-0.8-2.4-1.7h-2.5c0.1,2.1,2.1,3.7,4.9,3.7
	C-126.7,425.6-125,424.1-125,422.2z" fill="#fff" />
</svg>
