<svg width="120" height="69" viewBox="0 0 120 69" fill="none" xmlns="http://www.w3.org/2000/svg">
<path d="M68.7999 12C68.8999 12.2 68.9999 12.4 69.0999 12.5C74.0999 13.8 77.6999 18.3 77.6999 23.5C77.6999 29.8 72.3999 34.9 65.9999 34.9C62.5999 34.9 59.5999 33.5 57.3999 31.3H49.2999C47.4999 31.3 46.0999 29.9 46.0999 28.2C46.0999 27.2 46.5999 26.3 47.2999 25.8C46.5999 25.2 46.0999 24.4 46.0999 23.4C46.0999 22.4 46.5999 21.5 47.2999 21C46.5999 20.4 46.0999 19.6 46.0999 18.6C46.0999 17.6 46.5999 16.7 47.2999 16.2C46.5999 15.6 46.0999 14.8 46.0999 13.8C46.0999 12.1 47.4999 10.7 49.2999 10.7H51.0999C50.6999 10.2 50.4999 9.59997 50.4999 8.99997C50.4999 8.39997 50.6999 7.79996 51.0999 7.29996H45.5999C43.7999 7.29996 42.3999 5.89998 42.3999 4.19998C42.3999 2.49998 43.7999 1.09998 45.5999 1.09998H62.4999C64.2999 1.09998 65.6999 2.49998 65.6999 4.19998C65.6999 4.79998 65.4999 5.39996 65.0999 5.89996H70.5999C72.3999 5.89996 73.7999 7.29997 73.7999 8.99997C73.7999 10.7 72.3999 12.1 70.5999 12.1H68.7999V12ZM72.3999 8.89996C72.3999 7.89996 71.5999 7.19998 70.5999 7.19998H53.6999C52.6999 7.19998 51.8999 7.99996 51.8999 8.89996C51.8999 9.79996 52.6999 10.6 53.6999 10.6H66.1999H70.5999C71.5999 10.7 72.3999 9.89996 72.3999 8.89996ZM43.6999 4.09998C43.6999 5.09998 44.4999 5.79996 45.4999 5.79996H62.3999C63.3999 5.79996 64.1999 4.99998 64.1999 4.09998C64.1999 3.19998 63.3999 2.39996 62.3999 2.39996H45.4999C44.4999 2.29996 43.6999 3.09998 43.6999 4.09998ZM66.1999 12H49.2999C48.2999 12 47.4999 12.8 47.4999 13.7C47.4999 14.7 48.2999 15.4 49.2999 15.4H57.6999C59.7999 13.3 62.7999 12 65.9999 12C66.2999 12 66.6999 12 66.9999 12C66.6999 12.1 66.3999 12 66.1999 12ZM56.3999 16.9H49.1999C48.1999 16.9 47.3999 17.7 47.3999 18.6C47.3999 19.6 48.1999 20.3 49.1999 20.3H54.6999C55.0999 19.1 55.6999 17.9 56.3999 16.9ZM54.3999 21.7H49.2999C48.2999 21.7 47.4999 22.5 47.4999 23.4C47.4999 24.4 48.2999 25.1 49.2999 25.1H54.3999C54.2999 24.6 54.2999 24 54.2999 23.5C54.1999 22.9 54.2999 22.3 54.3999 21.7ZM47.3999 28.3C47.3999 29.3 48.1999 30 49.1999 30H56.1999C55.4999 28.9 54.8999 27.8 54.4999 26.5H49.0999C48.1999 26.5 47.3999 27.3 47.3999 28.3ZM55.5999 23.6C55.5999 29.2 60.2999 33.7 65.9999 33.7C71.6999 33.7 76.3999 29.2 76.3999 23.6C76.3999 18 71.6999 13.5 65.9999 13.5C60.1999 13.5 55.5999 18 55.5999 23.6ZM64.1999 21.3C64.1999 22.1 64.9999 22.8 65.9999 22.8C67.8999 22.8 69.3999 24.2 69.3999 25.8C69.3999 27.2 68.2999 28.4 66.7999 28.7V29C66.7999 29.4 66.3999 29.8 65.9999 29.8C65.5999 29.8 65.1999 29.5 65.1999 29V28.7C63.6999 28.4 62.5999 27.2 62.5999 25.8C62.5999 25.4 62.9999 25 63.3999 25C63.7999 25 64.1999 25.3 64.1999 25.8C64.1999 26.6 64.9999 27.3 65.9999 27.3C66.9999 27.3 67.7999 26.6 67.7999 25.8C67.7999 25 66.9999 24.3 65.9999 24.3C64.0999 24.3 62.5999 22.9 62.5999 21.3C62.5999 19.9 63.6999 18.7 65.1999 18.4V18C65.1999 17.6 65.5999 17.2 65.9999 17.2C66.3999 17.2 66.7999 17.5 66.7999 18V18.4C68.2999 18.7 69.3999 19.9 69.3999 21.3C69.3999 21.7 68.9999 22.1 68.5999 22.1C68.1999 22.1 67.7999 21.8 67.7999 21.3C67.7999 20.5 66.9999 19.8 65.9999 19.8C64.9999 19.8 64.1999 20.5 64.1999 21.3Z" fill="#3EC3D5"/>
<path d="M69.1001 12.6L68.9001 12.7V12.8H69.0001L69.1001 12.6ZM68.8001 12V11.7H68.3001L68.6001 12.1L68.8001 12ZM57.4001 31.4L57.6001 31.2L57.5001 31.1H57.4001V31.4ZM47.2001 25.9L47.4001 26.1L47.7001 25.9L47.4001 25.7L47.2001 25.9ZM47.2001 21L47.4001 21.2L47.7001 21L47.4001 20.8L47.2001 21ZM47.2001 16.2L47.4001 16.4L47.7001 16.2L47.4001 16L47.2001 16.2ZM51.0001 10.7V11H51.5001L51.2001 10.6L51.0001 10.7ZM51.0001 7.20001L51.2001 7.29999L51.5001 6.89999H51.0001V7.20001ZM65.0001 5.79999L64.8001 5.70001L64.5001 6.10001H65.0001V5.79999ZM57.6001 15.5V15.8H57.7001L57.8001 15.7L57.6001 15.5ZM66.9001 12.2V12.4L67.0001 11.9L66.9001 12.2ZM56.4001 16.9L56.6001 17.1L56.9001 16.7H56.4001V16.9ZM54.7001 20.4V20.7H54.9001L55.0001 20.5L54.7001 20.4ZM54.4001 21.7H54.6001L54.7001 21.4H54.4001V21.7V21.7ZM54.3001 25.2V25.5H54.6001V25.2H54.3001ZM56.3001 30V30.3H56.8001L56.5001 29.9L56.3001 30ZM54.6001 26.5L54.8001 26.4L54.7001 26.2H54.5001V26.5H54.6001ZM66.7001 28.7L66.6001 28.5H66.4001V28.7H66.7001ZM65.1001 28.7H65.4001V28.5H65.2001L65.1001 28.7ZM65.1001 18.3L65.2001 18.5H65.4001V18.3H65.1001ZM66.7001 18.3H66.4001V18.5H66.6001L66.7001 18.3ZM69.3001 12.5C69.2001 12.3 69.1001 12.1 69.0001 11.9L68.6001 12.2C68.7001 12.4 68.8001 12.5 68.9001 12.7L69.3001 12.5ZM77.9001 23.6C77.9001 18.2 74.2001 13.7 69.1001 12.4L69.0001 12.9C73.9001 14.2 77.4001 18.5 77.4001 23.7H77.9001V23.6ZM65.9001 35.3C72.5001 35.3 77.9001 30.1 77.9001 23.6H77.4001C77.4001 29.8 72.2001 34.8 65.9001 34.8V35.3ZM57.2001 31.5C59.4001 33.8 62.5001 35.2 66.0001 35.2V34.7C62.7001 34.7 59.7001 33.3 57.6001 31.1L57.2001 31.5ZM49.2001 31.6H57.3001V31.1H49.2001V31.6ZM45.8001 28.3C45.8001 30.1 47.3001 31.6 49.2001 31.6V31.1C47.6001 31.1 46.3001 29.8 46.3001 28.3H45.8001ZM47.1001 25.7C46.3001 26.3 45.8001 27.3 45.8001 28.3H46.3001C46.3001 27.4 46.7001 26.6 47.4001 26.1L47.1001 25.7ZM45.8001 23.4C45.8001 24.5 46.3001 25.4 47.1001 26L47.4001 25.6C46.7001 25.1 46.3001 24.3 46.3001 23.4H45.8001V23.4ZM47.1001 20.8C46.3001 21.4 45.8001 22.4 45.8001 23.4H46.3001C46.3001 22.5 46.7001 21.7 47.4001 21.2L47.1001 20.8ZM45.8001 18.6C45.8001 19.7 46.3001 20.6 47.1001 21.2L47.4001 20.8C46.7001 20.3 46.3001 19.5 46.3001 18.6H45.8001V18.6ZM47.1001 16C46.3001 16.6 45.8001 17.6 45.8001 18.6H46.3001C46.3001 17.7 46.7001 16.9 47.4001 16.4L47.1001 16ZM45.8001 13.8C45.8001 14.9 46.3001 15.8 47.1001 16.4L47.4001 16C46.7001 15.5 46.3001 14.7 46.3001 13.8H45.8001V13.8ZM49.2001 10.4C47.3001 10.4 45.8001 11.9 45.8001 13.7H46.3001C46.3001 12.1 47.6001 10.9 49.2001 10.9V10.4ZM51.0001 10.4H49.2001V10.9H51.0001V10.4ZM50.2001 8.89999C50.2001 9.59999 50.4001 10.3 50.8001 10.8L51.2001 10.5C50.9001 10 50.7001 9.49999 50.7001 8.89999H50.2001V8.89999ZM50.8001 7C50.4001 7.5 50.2001 8.19999 50.2001 8.89999H50.7001C50.7001 8.29999 50.9001 7.79999 51.2001 7.29999L50.8001 7ZM45.5001 7.39999H51.0001V6.89999H45.5001V7.39999ZM42.1001 4.10001C42.1001 5.90001 43.6001 7.39999 45.5001 7.39999V6.89999C43.9001 6.89999 42.6001 5.60001 42.6001 4.10001H42.1001ZM45.5001 0.799988C43.6001 0.799988 42.1001 2.30001 42.1001 4.10001H42.6001C42.6001 2.50001 43.9001 1.29999 45.5001 1.29999V0.799988ZM62.4001 0.799988H45.5001V1.29999H62.4001V0.799988ZM65.8001 4.10001C65.8001 2.30001 64.3001 0.799988 62.4001 0.799988V1.29999C64.0001 1.29999 65.3001 2.60001 65.3001 4.10001H65.8001ZM65.2001 6C65.6001 5.5 65.8001 4.80001 65.8001 4.10001H65.3001C65.3001 4.70001 65.1001 5.20001 64.8001 5.70001L65.2001 6ZM70.6001 5.60001H65.1001V6.10001H70.6001V5.60001ZM74.0001 8.89999C74.0001 7.09999 72.5001 5.60001 70.6001 5.60001V6.10001C72.2001 6.10001 73.5001 7.39999 73.5001 8.89999H74.0001ZM70.6001 12.3C72.5001 12.3 74.0001 10.8 74.0001 9H73.5001C73.5001 10.6 72.2001 11.8 70.6001 11.8V12.3ZM68.8001 12.3H70.6001V11.8H68.8001V12.3ZM70.6001 7.39999C71.5001 7.39999 72.1001 8.09999 72.1001 8.89999H72.6001C72.6001 7.79999 71.7001 6.89999 70.6001 6.89999V7.39999ZM53.6001 7.39999H70.5001V6.89999H53.6001V7.39999ZM52.1001 8.89999C52.1001 8.09999 52.8001 7.39999 53.6001 7.39999V6.89999C52.5001 6.89999 51.6001 7.79999 51.6001 8.89999H52.1001ZM53.6001 10.4C52.7001 10.4 52.1001 9.69999 52.1001 8.89999H51.6001C51.6001 9.99999 52.5001 10.9 53.6001 10.9V10.4ZM66.2001 10.4H53.7001V10.9H66.2001V10.4ZM70.6001 10.4H66.2001V10.9H70.6001V10.4ZM72.1001 8.89999C72.1001 9.69999 71.4001 10.4 70.6001 10.4V10.9C71.7001 10.9 72.6001 9.99999 72.6001 8.89999H72.1001ZM45.5001 5.60001C44.6001 5.60001 44.0001 4.90001 44.0001 4.10001H43.5001C43.5001 5.20001 44.4001 6.10001 45.5001 6.10001V5.60001ZM62.4001 5.60001H45.5001V6.10001H62.4001V5.60001ZM64.0001 4.10001C64.0001 4.90001 63.3001 5.60001 62.5001 5.60001V6.10001C63.6001 6.10001 64.5001 5.20001 64.5001 4.10001H64.0001ZM62.4001 2.60001C63.3001 2.60001 63.9001 3.30001 63.9001 4.10001H64.4001C64.4001 3.00001 63.5001 2.10001 62.4001 2.10001V2.60001ZM45.5001 2.60001H62.4001V2.10001H45.5001V2.60001ZM43.9001 4.10001C43.9001 3.30001 44.6001 2.60001 45.4001 2.60001V2.10001C44.3001 2.10001 43.4001 3.00001 43.4001 4.10001H43.9001ZM49.2001 12.3H66.1001V11.8H49.2001V12.3ZM47.7001 13.8C47.7001 13 48.4001 12.3 49.2001 12.3V11.8C48.1001 11.8 47.2001 12.7 47.2001 13.8H47.7001ZM49.2001 15.3C48.3001 15.3 47.7001 14.6 47.7001 13.8H47.2001C47.2001 14.9 48.1001 15.8 49.2001 15.8V15.3ZM57.6001 15.3H49.2001V15.8H57.6001V15.3ZM65.9001 11.9C62.6001 11.9 59.6001 13.2 57.4001 15.3L57.7001 15.7C59.8001 13.7 62.7001 12.4 65.8001 12.4V11.9H65.9001ZM67.0001 11.9C66.7001 11.9 66.3001 11.9 66.0001 11.9V12.4C66.3001 12.4 66.7001 12.4 67.0001 12.4V11.9ZM66.2001 12.3C66.4001 12.3 66.7001 12.4 66.9001 12.5L67.1001 12C66.8001 11.9 66.5001 11.8 66.2001 11.8V12.3V12.3ZM49.2001 17.1H56.4001V16.6H49.2001V17.1ZM47.7001 18.6C47.7001 17.8 48.4001 17.1 49.2001 17.1V16.6C48.1001 16.6 47.2001 17.5 47.2001 18.6H47.7001ZM49.2001 20.1C48.3001 20.1 47.7001 19.4 47.7001 18.6H47.2001C47.2001 19.7 48.1001 20.6 49.2001 20.6V20.1ZM54.7001 20.1H49.2001V20.6H54.7001V20.1ZM56.2001 16.7C55.4001 17.8 54.8001 19 54.4001 20.3L54.9001 20.4C55.3001 19.2 55.9001 18 56.6001 17L56.2001 16.7ZM49.2001 21.9H54.3001V21.4H49.2001V21.9ZM47.7001 23.4C47.7001 22.6 48.4001 21.9 49.2001 21.9V21.4C48.1001 21.4 47.2001 22.3 47.2001 23.4H47.7001ZM49.2001 24.9C48.3001 24.9 47.7001 24.2 47.7001 23.4H47.2001C47.2001 24.5 48.1001 25.4 49.2001 25.4V24.9ZM54.3001 24.9H49.2001V25.4H54.3001V24.9ZM53.9001 23.6C53.9001 24.2 53.9001 24.7 54.0001 25.2L54.5001 25.1C54.4001 24.6 54.4001 24.1 54.4001 23.5H53.9001V23.6ZM54.1001 21.7C54.0001 22.3 53.9001 23 53.9001 23.6H54.4001C54.4001 23 54.5001 22.4 54.6001 21.8L54.1001 21.7ZM49.2001 29.8C48.3001 29.8 47.7001 29.1 47.7001 28.3H47.2001C47.2001 29.4 48.1001 30.3 49.2001 30.3V29.8ZM56.3001 29.8H49.3001V30.3H56.3001V29.8ZM54.4001 26.6C54.8001 27.9 55.3001 29.1 56.1001 30.2L56.5001 29.9C55.8001 28.9 55.2001 27.7 54.9001 26.5L54.4001 26.6ZM49.2001 26.8H54.6001V26.3H49.2001V26.8ZM47.7001 28.3C47.7001 27.5 48.4001 26.8 49.2001 26.8V26.3C48.1001 26.3 47.2001 27.2 47.2001 28.3H47.7001ZM65.9001 33.4C60.3001 33.4 55.8001 29 55.8001 23.6H55.3001C55.3001 29.3 60.1001 33.9 65.9001 33.9V33.4ZM76.1001 23.6C76.1001 29 71.6001 33.4 66.0001 33.4V33.9C71.8001 33.9 76.6001 29.3 76.6001 23.6H76.1001ZM65.9001 13.7C71.5001 13.7 76.0001 18.1 76.0001 23.5H76.5001C76.5001 17.8 71.7001 13.2 65.9001 13.2V13.7ZM55.8001 23.6C55.8001 18.2 60.3001 13.8 65.9001 13.8V13.3C60.1001 13.3 55.3001 17.9 55.3001 23.6H55.8001ZM65.9001 22.5C65.0001 22.5 64.4001 21.9 64.4001 21.3H63.9001C63.9001 22.3 64.8001 23 65.9001 23V22.5ZM69.6001 25.8C69.6001 24 68.0001 22.5 66.0001 22.5V23C67.7001 23 69.1001 24.3 69.1001 25.8H69.6001ZM66.8001 29C68.4001 28.7 69.6001 27.4 69.6001 25.8H69.1001C69.1001 27.1 68.1001 28.2 66.7001 28.5L66.8001 29ZM67.0001 29.1V28.8H66.5001V29.1H67.0001ZM65.9001 30.1C66.5001 30.1 66.9001 29.6 66.9001 29.1H66.4001C66.4001 29.4 66.2001 29.6 65.9001 29.6V30.1ZM64.9001 29.1C64.9001 29.7 65.4001 30.1 65.9001 30.1V29.6C65.6001 29.6 65.4001 29.4 65.4001 29.1H64.9001ZM64.9001 28.7V29H65.4001V28.7H64.9001ZM62.3001 25.8C62.3001 27.4 63.5001 28.6 65.1001 29L65.2001 28.5C63.8001 28.2 62.8001 27.1 62.8001 25.8H62.3001ZM63.4001 24.8C62.8001 24.8 62.4001 25.3 62.4001 25.8H62.9001C62.9001 25.5 63.1001 25.3 63.4001 25.3V24.8ZM64.4001 25.8C64.4001 25.2 63.9001 24.8 63.4001 24.8V25.3C63.7001 25.3 63.9001 25.5 63.9001 25.8H64.4001ZM65.9001 27C65.0001 27 64.4001 26.4 64.4001 25.8H63.9001C63.9001 26.8 64.8001 27.5 65.9001 27.5V27ZM67.5001 25.8C67.5001 26.4 66.9001 27 66.0001 27V27.5C67.1001 27.5 68.0001 26.8 68.0001 25.8H67.5001ZM65.9001 24.6C66.8001 24.6 67.4001 25.2 67.4001 25.8H67.9001C67.9001 24.8 67.0001 24.1 65.9001 24.1V24.6ZM62.3001 21.3C62.3001 23.1 63.9001 24.6 65.9001 24.6V24.1C64.2001 24.1 62.8001 22.8 62.8001 21.3H62.3001ZM65.1001 18.1C63.5001 18.4 62.3001 19.7 62.3001 21.3H62.8001C62.8001 20 63.8001 18.9 65.2001 18.6L65.1001 18.1ZM64.9001 17.9V18.3H65.4001V17.9H64.9001ZM65.9001 16.9C65.3001 16.9 64.9001 17.4 64.9001 17.9H65.4001C65.4001 17.6 65.6001 17.4 65.9001 17.4V16.9ZM67.0001 17.9C67.0001 17.3 66.5001 16.9 66.0001 16.9V17.4C66.3001 17.4 66.5001 17.6 66.5001 17.9H67.0001ZM67.0001 18.3V17.9H66.5001V18.3H67.0001ZM69.6001 21.3C69.6001 19.7 68.4001 18.5 66.8001 18.1L66.7001 18.6C68.1001 18.9 69.1001 20 69.1001 21.3H69.6001ZM68.5001 22.3C69.1001 22.3 69.5001 21.8 69.5001 21.3H69.0001C69.0001 21.6 68.8001 21.8 68.5001 21.8V22.3ZM67.5001 21.3C67.5001 21.9 68.0001 22.3 68.5001 22.3V21.8C68.2001 21.8 68.0001 21.6 68.0001 21.3H67.5001ZM65.9001 20C66.8001 20 67.4001 20.6 67.4001 21.2H67.9001C67.9001 20.2 67.0001 19.5 65.9001 19.5V20ZM64.4001 21.3C64.4001 20.7 65.0001 20.1 65.9001 20.1V19.6C64.8001 19.6 63.9001 20.3 63.9001 21.3H64.4001Z" fill="#3EC3D5"/>
<path d="M0 57.7C0 61.2 2.40001 63.6 5.60001 63.6C7.70001 63.6 9.3 62.5 10 61.3V63.7C10 66.1 8.4 67.4 6.3 67.4C4.4 67.4 3 66.5 2.5 65.1H0.600006C1.00001 67.5 3.2 69 6.3 69C9.8 69 11.9 66.8 11.9 63.6V52H9.89999V54.1C9.19999 52.9 7.7 51.8 5.5 51.8C2.4 51.8 0 54.1 0 57.7ZM10 57.7C10 60.4 8.2 61.9 6 61.9C3.8 61.9 2 60.3 2 57.6C2 54.9 3.8 53.4 6 53.4C8.2 53.4 10 55 10 57.7Z" fill="white"/>
<path d="M26.4001 57.7C26.4001 54.1 23.8001 51.8 20.5001 51.8C17.2001 51.8 14.6001 54.1 14.6001 57.7C14.6001 61.3 17.1001 63.6 20.5001 63.6C23.7001 63.6 26.4001 61.3 26.4001 57.7ZM16.5001 57.7C16.5001 54.8 18.4001 53.5 20.4001 53.5C22.4001 53.5 24.4001 54.8 24.4001 57.7C24.4001 60.6 22.4001 61.9 20.4001 61.9C18.3001 61.9 16.5001 60.6 16.5001 57.7Z" fill="white"/>
<path d="M30.1 63.4H32.6V53.9H34.8V52H32.6V51.2C32.6 49.9 33.1 49.4 34.6 49.4V47.4C31.5 47.4 30.1 48.5 30.1 51.2V52H28.7V53.9H30.1V63.4Z" fill="white"/>
<path d="M36.9001 63.4H39.3001V52H36.9001V63.4ZM38.2001 50.4C39.1001 50.4 39.7001 49.7 39.7001 48.9C39.7001 48 39.0001 47.4 38.2001 47.4C37.3001 47.4 36.6001 48.1 36.6001 48.9C36.6001 49.8 37.3001 50.4 38.2001 50.4Z" fill="white"/>
<path d="M51.0001 63.4H53.4001V56.7C53.4001 53.5 51.3001 51.8 48.5001 51.8C47.1001 51.8 45.8001 52.4 45.0001 53.3V52H42.6001V63.4H45.0001V57C45.0001 54.9 46.2001 53.8 48.0001 53.8C49.8001 53.8 51.0001 54.9 51.0001 57V63.4Z" fill="white"/>
<path d="M55.7 57.6C55.7 61.1 58.2 63.6 61.2 63.6C63.2 63.6 64.6 62.7 65.3 61.7V63.4H67.8V52H65.3V53.7C64.6 52.8 63.2 51.9 61.2 51.9C58.2 51.8 55.7 54.1 55.7 57.6ZM65.3999 57.7C65.3999 60.2 63.7 61.6 61.8 61.6C60 61.6 58.2 60.2 58.2 57.7C58.2 55.2 60 53.9 61.8 53.9C63.7 53.8 65.3999 55.2 65.3999 57.7Z" fill="white"/>
<path d="M79.5001 63.4H81.9001V56.7C81.9001 53.5 79.8001 51.8 77.0001 51.8C75.6001 51.8 74.3001 52.4 73.5001 53.3V52H71.1001V63.4H73.5001V57C73.5001 54.9 74.7001 53.8 76.5001 53.8C78.3001 53.8 79.5001 54.9 79.5001 57V63.4Z" fill="white"/>
<path d="M84.2 57.7C84.2 61.3 86.6 63.6 90 63.6C92.9 63.6 94.8 62 95.5 59.8H92.8999C92.3999 61 91.5 61.6 90.1 61.6C88.1 61.6 86.8 60.2 86.8 57.7C86.8 55.2 88.1 53.8 90.1 53.8C91.6 53.8 92.4999 54.5 92.8999 55.6H95.5C94.8 53.2 92.9 51.8 90 51.8C86.6 51.8 84.2 54.1 84.2 57.7Z" fill="white"/>
<path d="M102.9 53.8C104.7 53.8 106.2 54.9 106.2 56.7H99.6C99.9 54.8 101.2 53.8 102.9 53.8ZM108.4 60H105.8C105.3 60.9 104.5 61.6 103 61.6C101.2 61.6 99.8 60.5 99.6 58.6H108.6C108.7 58.2 108.7 57.8 108.7 57.4C108.7 54 106.3 51.8 102.9 51.8C99.4 51.8 97 54.1 97 57.7C97 61.3 99.5 63.6 102.9 63.6C105.9 63.6 107.8 62 108.4 60Z" fill="white"/>
<path d="M120 60.2C119.9 56.1 113.2 57.4 113.2 55.1C113.2 54.3 113.9 53.8 115.2 53.8C116.5 53.8 117.3 54.5 117.4 55.5H119.8C119.7 53.2 117.9 51.8 115.2 51.8C112.4 51.8 110.6 53.3 110.6 55.1C110.6 59.3 117.5 58 117.5 60.2C117.5 61 116.7 61.6 115.3 61.6C113.9 61.6 113 60.8 112.9 59.9H110.4C110.5 62 112.5 63.6 115.3 63.6C118.3 63.6 120 62.1 120 60.2Z" fill="white"/>
</svg>
